<?xml version="1.0" encoding="UTF-8"?>
<svg xmlns="http://www.w3.org/2000/svg" version="1.1" width="1024" height="460" viewBox="0 250 1024 460">
<path d="M0 0 C337.92 0 675.84 0 1024 0 C1024 337.92 1024 675.84 1024 1024 C686.08 1024 348.16 1024 0 1024 C0 686.08 0 348.16 0 0 Z " fill="#1A1B1A" transform="translate(0,0)"/>
<path d="M0 0 C2.49780273 1.80078125 2.49780273 1.80078125 4.93359375 4.3125 C6.2784082 5.67955078 6.2784082 5.67955078 7.65039062 7.07421875 C8.57961077 8.04930415 9.50864623 9.02456559 10.4375 10 C11.35337891 10.93457031 12.26925781 11.86914062 13.21289062 12.83203125 C17.77040831 17.51060289 22.1749892 22.28317922 26.43774414 27.23046875 C28.83607412 29.94700191 31.40639153 32.47167195 34 35 C37.90149379 38.84850236 41.60846364 42.7644768 45.16015625 46.94140625 C47.95560088 50.06921797 50.96177012 52.98253597 53.94677734 55.92724609 C57.23663532 59.18988704 60.31624123 62.56058282 63.30078125 66.1015625 C65.20854636 68.23299663 67.27451985 70.1218794 69.375 72.0625 C71.89859989 74.60091555 73.027469 76.06568673 74.4375 79.4375 C73.45910489 87.40443163 66.02162857 93.59880685 60.12890625 98.57421875 C58 100 58 100 54.875 100.4375 C48.58200057 97.29100028 44.40176511 91.35003213 39.8828125 86.1015625 C37.11654338 83.01390112 34.14964913 80.14082537 31.19921875 77.23046875 C28.54831606 74.54189781 26.09297235 71.71792036 23.62890625 68.859375 C19.05714341 63.39809749 19.05714341 63.39809749 13 60 C13.00368717 61.24866978 13.00737434 62.49733955 13.01117325 63.78384781 C13.09776663 93.41122102 13.16374296 123.03856166 13.20426132 152.66603036 C13.20926427 156.3110452 13.21444154 159.95605978 13.21972656 163.60107422 C13.2207758 164.32674437 13.22182505 165.05241451 13.22290608 165.80007467 C13.24032097 177.55679224 13.27186459 189.31343174 13.30861118 201.07010296 C13.34599052 213.12960974 13.36822947 225.18907558 13.37635398 237.24863791 C13.38135449 244.02398927 13.39340175 250.79917768 13.42292023 257.57447052 C13.44999907 263.94705276 13.45846017 270.3193842 13.45243073 276.69201851 C13.45353433 279.03501052 13.46153267 281.37801061 13.4768219 283.72095299 C13.49663147 286.91220095 13.49197173 290.10249358 13.48101807 293.29376221 C13.49849512 294.69453581 13.49849512 294.69453581 13.51632524 296.12360787 C13.45820562 302.35890384 13.45820562 302.35890384 11.15797043 305.57726669 C8.17765969 307.54216264 6.0708239 307.47098088 2.51953125 307.42578125 C1.27365234 307.41740234 0.02777344 307.40902344 -1.25585938 307.40039062 C-3.20202148 307.35688477 -3.20202148 307.35688477 -5.1875 307.3125 C-6.49654297 307.30283203 -7.80558594 307.29316406 -9.15429688 307.28320312 C-18.83231027 307.16768973 -18.83231027 307.16768973 -20 306 C-20.23481693 303.81707226 -20.41363323 301.62796826 -20.5625 299.4375 C-20.68818359 297.64119141 -20.68818359 297.64119141 -20.81640625 295.80859375 C-20.87699219 294.88175781 -20.93757812 293.95492188 -21 293 C-21.4846875 293.51949219 -21.969375 294.03898437 -22.46875 294.57421875 C-29.85332643 302.25701846 -37.15875773 307.95757607 -48.18823242 308.2746582 C-50.24390007 308.29454922 -52.29970564 308.30256552 -54.35546875 308.30078125 C-56.00159904 308.30720894 -56.00159904 308.30720894 -57.6809845 308.31376648 C-59.99996248 308.31949901 -62.31895845 308.320018 -64.63793945 308.31567383 C-68.15803341 308.31252635 -71.67727621 308.33594418 -75.19726562 308.36132812 C-77.45833228 308.36360269 -79.71940118 308.36430389 -81.98046875 308.36328125 C-83.02043503 308.372491 -84.06040131 308.38170074 -85.13188171 308.39118958 C-100.35370589 308.29645762 -113.82750084 302.84479951 -124.8203125 292.2734375 C-140.1310612 276.30416198 -142.47838881 257.23406225 -142.3984375 236.12109375 C-142.40046375 234.21785877 -142.40337975 232.31462456 -142.40713501 230.41139221 C-142.41153138 226.44353769 -142.40521392 222.47588724 -142.39111328 218.50805664 C-142.37401135 213.45260363 -142.38388623 208.39762825 -142.40183067 203.34219265 C-142.41273156 199.41881283 -142.40919361 195.4955441 -142.4014473 191.57216072 C-142.39946328 189.70925908 -142.4018404 187.84634694 -142.40888596 185.98345757 C-142.46564045 166.768387 -139.11301443 148.2727844 -125 134 C-118.31351223 128.16589736 -111.54871112 123.53052339 -103 121 C-101.31994873 120.49206909 -101.31994873 120.49206909 -99.60595703 119.97387695 C-94.03038661 118.59728779 -88.47283337 118.67553688 -82.7578125 118.6640625 C-81.01248734 118.6540773 -81.01248734 118.6540773 -79.23190308 118.64389038 C-76.77945529 118.63380054 -74.32698024 118.62907222 -71.87451172 118.62939453 C-68.14374127 118.62502197 -64.41415528 118.58866246 -60.68359375 118.55078125 C-58.29167068 118.54491207 -55.89974203 118.54094335 -53.5078125 118.5390625 C-52.40333771 118.52469147 -51.29886292 118.51032043 -50.16091919 118.49551392 C-40.41468967 118.55238313 -32.58676545 120.72728393 -25.5 127.6875 C-22.51013135 130.71256097 -22.51013135 130.71256097 -19 133 C-19 108.91 -19 84.82 -19 60 C-24.22454745 62.4262008 -24.22454745 62.4262008 -27.96484375 65.890625 C-28.45122314 66.43178955 -28.93760254 66.9729541 -29.4387207 67.53051758 C-29.93331787 68.09794678 -30.42791504 68.66537598 -30.9375 69.25 C-31.99107353 70.42677954 -33.04575306 71.60256986 -34.1015625 72.77734375 C-34.60204102 73.3379248 -35.10251953 73.89850586 -35.61816406 74.47607422 C-37.28944197 76.31920437 -39.03136869 78.07569549 -40.8125 79.8125 C-43.12174856 82.07723293 -45.26716166 84.42145697 -47.375 86.875 C-48.57981111 88.25308731 -49.78841035 89.62786846 -51 91 C-51.73605469 91.83917969 -52.47210937 92.67835938 -53.23046875 93.54296875 C-54.00003906 94.37441406 -54.76960937 95.20585937 -55.5625 96.0625 C-56.26503906 96.83722656 -56.96757813 97.61195313 -57.69140625 98.41015625 C-60 100 -60 100 -62.88671875 100.11328125 C-67.03818224 98.62875541 -69.28541526 96.3055972 -72.25 93.125 C-73.04277344 92.31095703 -73.04277344 92.31095703 -73.8515625 91.48046875 C-79.70640647 85.40272462 -79.70640647 85.40272462 -80.5625 81.3125 C-79.69716652 76.21664728 -76.50697106 73.63614127 -73 70 C-71.53792611 68.35748868 -70.07972218 66.71152603 -68.625 65.0625 C-64.9200391 60.94797709 -61.05845188 57.03515151 -57.1171875 53.1484375 C-54.55231861 50.54571077 -52.18947571 47.80438833 -49.8125 45.03125 C-47.14392357 42.040604 -44.28215492 39.25880702 -41.40625 36.46875 C-39.45559075 34.46742428 -37.63823308 32.43866336 -35.8203125 30.3203125 C-31.57697435 25.42941495 -26.9872564 20.91518989 -22.375 16.375 C-15.96682065 10.14905482 -15.96682065 10.14905482 -10.0390625 3.4765625 C-6.93380641 -0.29495543 -4.79955233 -0.5006052 0 0 Z " fill="#D15228" transform="translate(735,297)"/>
<path d="M0 0 C1.20140625 -0.01998047 2.4028125 -0.03996094 3.640625 -0.06054688 C4.79046875 -0.05990234 5.9403125 -0.05925781 7.125 -0.05859375 C8.17945313 -0.06044678 9.23390625 -0.0622998 10.3203125 -0.06420898 C13 0.4375 13 0.4375 14.83520508 2.2800293 C16.36958659 5.12206019 16.51290688 7.47498652 16.6875 10.6875 C16.78611328 12.30398438 16.78611328 12.30398438 16.88671875 13.953125 C16.94279297 15.18289063 16.94279297 15.18289063 17 16.4375 C17.41507812 16.01339844 17.83015625 15.58929688 18.2578125 15.15234375 C29.7270062 4.23501502 43.23288171 0.06345924 58.7277832 0.06689453 C60.90073191 0.06257312 63.07155751 0.0263577 65.24414062 -0.01171875 C83.94029531 -0.16243948 99.72592917 5.22891348 113.26953125 18.51171875 C117.30431884 22.6879805 120.27603572 27.32550269 123 32.4375 C123.47050781 33.29859375 123.94101562 34.1596875 124.42578125 35.046875 C130.74465334 47.64733969 131.47019487 61.19664284 131.43359375 75.01953125 C131.43817543 76.5692314 131.44348673 78.11892954 131.44947815 79.66862488 C131.4583321 82.89318166 131.45607646 86.11748978 131.44604492 89.34204102 C131.43685852 92.60890322 131.44377652 95.87505057 131.46655273 99.1418457 C131.76024486 141.50061371 131.76024486 141.50061371 123.3125 156.9375 C122.96928711 157.58783203 122.62607422 158.23816406 122.27246094 158.90820312 C114.24048673 173.52102702 101.86853999 181.72789657 86.25 186.52734375 C85.1775 186.82769531 84.105 187.12804687 83 187.4375 C82.43474609 187.61635742 81.86949219 187.79521484 81.28710938 187.97949219 C77.92628565 188.65251795 74.57105093 188.64118708 71.15625 188.67578125 C70.39131226 188.683853 69.62637451 188.69192474 68.83825684 188.70024109 C67.21771488 188.71405323 65.59714417 188.72478819 63.9765625 188.73266602 C62.33975537 188.74412237 60.70298369 188.76447231 59.06640625 188.79418945 C46.93099277 189.01422987 35.58828969 188.59668748 25.5 180.875 C24.7265625 180.29621094 23.953125 179.71742188 23.15625 179.12109375 C22.4446875 178.56550781 21.733125 178.00992188 21 177.4375 C19.66791082 176.43584328 18.33475758 175.43559818 17 174.4375 C16.99413376 175.55614441 16.98826752 176.67478882 16.98222351 177.82733154 C16.92504201 188.36298714 16.85230436 198.89843542 16.76428509 209.43387985 C16.71953337 214.85043606 16.68028779 220.26691621 16.65356445 225.68359375 C16.62757946 230.90975674 16.58721106 236.1356278 16.53681374 241.36161041 C16.5201125 243.35668561 16.50861855 245.35181135 16.50238609 247.34694672 C16.49278044 250.13883663 16.46476365 252.92997419 16.43237305 255.72167969 C16.43380814 256.54886505 16.43524323 257.37605042 16.4367218 258.228302 C16.38224532 261.5424414 16.23350103 264.00368027 14.64718628 266.95088196 C12.15916017 269.19637449 10.17194734 268.93914059 6.87109375 268.93359375 C5.67162109 268.93423828 4.47214844 268.93488281 3.23632812 268.93554688 C1.98271484 268.91556641 0.72910156 268.89558594 -0.5625 268.875 C-1.81998047 268.88208984 -3.07746094 268.88917969 -4.37304688 268.89648438 C-11.29930704 268.84804899 -11.29930704 268.84804899 -14 268.4375 C-16.09879675 265.28930487 -16.25055577 264.57174838 -16.25447559 260.98498535 C-16.26030779 260.06821266 -16.26613998 259.15143997 -16.27214891 258.20688629 C-16.26836958 257.19824272 -16.26459026 256.18959915 -16.26069641 255.15039062 C-16.26452196 254.08005333 -16.26834751 253.00971603 -16.27228898 251.90694427 C-16.28264899 248.30249694 -16.27862113 244.69820801 -16.2746582 241.09375 C-16.27900298 238.51692557 -16.28418534 235.94010244 -16.29014587 233.36328125 C-16.30291097 227.08010468 -16.30468436 220.79697081 -16.30234561 214.51378345 C-16.30056448 209.4085168 -16.30230768 204.30326314 -16.30657005 199.19799805 C-16.30716524 198.47212604 -16.30776043 197.74625403 -16.30837366 196.99838591 C-16.30958537 195.5239137 -16.3107995 194.04944149 -16.31201603 192.57496929 C-16.32289834 178.74019143 -16.32072569 164.90543793 -16.31463119 151.07065868 C-16.30946018 138.40492009 -16.32072108 125.73925836 -16.33972941 113.07353497 C-16.35908492 100.07714559 -16.36736791 87.08079262 -16.36360615 74.08438873 C-16.36169078 66.78434215 -16.36421432 59.48436103 -16.37832069 52.18432617 C-16.39144574 45.32253868 -16.38900566 38.460908 -16.37590981 31.59912109 C-16.37353291 29.07511341 -16.37631819 26.55109504 -16.38453293 24.02709961 C-16.39490797 20.59275386 -16.38697424 17.15893546 -16.3742218 13.72460938 C-16.38159609 12.71596581 -16.38897037 11.70732224 -16.39656812 10.66811371 C-16.38936158 9.75134102 -16.38215503 8.83456833 -16.37473011 7.89001465 C-16.37478513 7.09688622 -16.37484014 6.30375778 -16.37489682 5.48659515 C-14.98808296 -2.09339321 -5.81820395 -0.03433489 0 0 Z " fill="#D05128" transform="translate(431,416.5625)"/>
<path d="M0 0 C1.20140625 -0.02449219 2.4028125 -0.04898437 3.640625 -0.07421875 C4.79046875 -0.07808594 5.9403125 -0.08195312 7.125 -0.0859375 C8.17945313 -0.09415527 9.23390625 -0.10237305 10.3203125 -0.11083984 C13 0.375 13 0.375 14.64424229 2.07147121 C16.27904741 4.84912139 16.3738114 6.50767148 16.37181091 9.71730042 C16.37856842 10.80074234 16.38532593 11.88418427 16.39228821 13.00045776 C16.38456894 14.18439117 16.37684967 15.36832458 16.36889648 16.58813477 C16.37266296 17.83901382 16.37642944 19.08989288 16.38031006 20.37867737 C16.38675158 23.09839563 16.38784363 25.8175153 16.38012505 28.53717232 C16.36852254 32.84624496 16.38072322 37.15504955 16.39674377 41.46409607 C16.43291445 52.17264176 16.43917657 62.88118148 16.43664551 73.58978271 C16.43492988 81.90275664 16.44219891 90.21551084 16.47662407 98.52842373 C16.49332755 102.80232893 16.49170102 107.07569669 16.47580135 111.349599 C16.46858682 114.65184929 16.48728126 117.95387907 16.50170898 121.25610352 C16.49196548 122.42586731 16.48222198 123.5956311 16.47218323 124.80084229 C16.55140951 133.92665196 18.00125727 142.38317077 24.25 149.375 C31.42566017 155.79775364 40.5357259 156.51487727 49.8203125 156.61328125 C50.93018021 156.62538887 50.93018021 156.62538887 52.06246948 156.63774109 C53.62397978 156.65151133 55.18551929 156.66226474 56.74707031 156.67016602 C58.3217063 156.68164437 59.89630465 156.7020302 61.47070312 156.73168945 C72.52679514 156.93939731 82.17265884 156.35761568 92 150.625 C99.66145996 142.00585755 100.29493218 131.69805131 100.27124023 120.69433594 C100.27926281 118.75395587 100.28728782 116.8135758 100.29540551 114.87319613 C100.30223776 112.79915809 100.30425903 110.7251641 100.30496025 108.65111542 C100.30690786 104.32302363 100.32499584 99.9950904 100.34571838 95.66705322 C100.39479951 84.92342482 100.42583223 74.17975385 100.44702148 63.43603516 C100.46353502 55.07289945 100.48629732 46.70990096 100.53004223 38.34685731 C100.551838 34.04323852 100.55987488 29.73988036 100.55764949 25.43621016 C100.55970374 22.1367603 100.58104875 18.83748458 100.59936523 15.53808594 C100.59478806 14.34427307 100.59021088 13.15046021 100.585495 11.92047119 C100.59514282 10.83262329 100.60479065 9.74477539 100.61473083 8.6239624 C100.61774783 7.20375101 100.61774783 7.20375101 100.62082577 5.75484848 C101.06992768 2.93610606 101.7138374 2.03905551 104 0.375 C106.6796875 -0.01318359 106.6796875 -0.01318359 109.875 -0.0234375 C111.02484375 -0.02730469 112.1746875 -0.03117187 113.359375 -0.03515625 C114.56078125 -0.02355469 115.7621875 -0.01195312 117 0 C118.20140625 -0.01160156 119.4028125 -0.02320313 120.640625 -0.03515625 C122.36539063 -0.02935547 122.36539063 -0.02935547 124.125 -0.0234375 C125.17945313 -0.02005371 126.23390625 -0.01666992 127.3203125 -0.01318359 C130 0.375 130 0.375 131.64409161 1.45604801 C133.72081059 4.39512859 133.37468037 6.89976141 133.3742218 10.46641541 C133.37819621 11.19302874 133.38217061 11.91964207 133.38626546 12.66827399 C133.39591091 15.10969452 133.38405709 17.55053882 133.37231445 19.99194336 C133.3747417 21.73957028 133.37846037 23.48719582 133.38337708 25.2348175 C133.39279955 29.98689684 133.38334889 34.73877069 133.37004495 39.490834 C133.35874576 44.45910478 133.36283681 49.42736521 133.36479187 54.39564514 C133.36567541 62.74092982 133.35458253 71.08613336 133.33618164 79.43139648 C133.31502003 89.08406966 133.31150232 98.73662388 133.3177436 108.38931555 C133.32343599 117.66752949 133.31779262 126.94570148 133.30657005 136.22390938 C133.3019217 140.17558123 133.30105125 144.12722744 133.3031559 148.07890129 C133.30503788 152.73198133 133.29694183 157.38494009 133.2810955 162.03799248 C133.27684838 163.74723306 133.27600497 165.45648593 133.27878571 167.16572952 C133.28200214 169.49615364 133.27293938 171.82621422 133.26069641 174.15660095 C133.25761711 176.11417532 133.25761711 176.11417532 133.25447559 178.11129665 C133.01574013 181.17312945 132.7325826 182.87664434 131 185.375 C125.844994 188.1341483 120.57377727 187.70597853 114.875 187.6875 C113.87339844 187.70361328 112.87179687 187.71972656 111.83984375 187.73632812 C110.87949219 187.73697266 109.91914063 187.73761719 108.9296875 187.73828125 C107.61846924 187.74275269 107.61846924 187.74275269 106.28076172 187.74731445 C103.51717223 187.29618258 102.62788086 186.62585645 101 184.375 C100.70703125 181.23828125 100.70703125 181.23828125 100.8125 177.6875 C100.85310547 175.91826172 100.85310547 175.91826172 100.89453125 174.11328125 C100.92933594 173.20964844 100.96414063 172.30601562 101 171.375 C100.5153125 171.81070313 100.030625 172.24640625 99.53125 172.6953125 C85.73963452 184.94863241 75.93187301 189.06787947 57.44262695 188.89648438 C54.70368046 188.87512617 51.96738009 188.896308 49.22851562 188.921875 C29.5144601 188.95531424 14.80652352 183.4893915 0.21875 169.73046875 C-12.04189488 156.71432639 -16.47521179 142.28661942 -16.38818359 124.67358398 C-16.39225882 123.33531773 -16.39760599 121.99705485 -16.40411377 120.65879822 C-16.41766848 117.06017089 -16.41254161 113.46180452 -16.40297651 109.86317325 C-16.39533212 106.087166 -16.40243739 102.31117972 -16.40713501 98.53517151 C-16.41257271 92.206594 -16.40544706 85.878122 -16.39111328 79.54956055 C-16.3747269 72.23012581 -16.38012635 64.91094102 -16.3965925 57.59151214 C-16.4101885 51.29574803 -16.41213822 45.00005925 -16.40427649 38.7042852 C-16.3995977 34.94844427 -16.39898199 31.19272113 -16.40888596 27.43688774 C-16.41913026 23.2617281 -16.40494961 19.08700366 -16.38818359 14.91186523 C-16.39425629 13.66463684 -16.40032898 12.41740845 -16.40658569 11.13238525 C-16.39812622 10.00120773 -16.38966675 8.87003021 -16.38095093 7.70457458 C-16.37981985 6.71779441 -16.37868877 5.73101423 -16.37752342 4.71433163 C-16.25294069 3.94235219 -16.12835796 3.17037275 -16 2.375 C-11.12711606 -0.87358929 -5.72710186 0.00614496 0 0 Z " fill="#D05228" transform="translate(248,416.625)"/>
<path d="M0 0 C1.14892731 -0.00428513 2.29785461 -0.00857025 3.4815979 -0.01298523 C5.9073216 -0.01871759 8.33306248 -0.01923687 10.75878906 -0.01489258 C14.45668079 -0.01173572 18.15376976 -0.03519593 21.8515625 -0.06054688 C24.21354066 -0.06282038 26.57552097 -0.06352313 28.9375 -0.0625 C30.58629654 -0.07631462 30.58629654 -0.07631462 32.2684021 -0.09040833 C40.12695597 -0.04339277 45.66708163 1.05515914 52.3515625 5.42578125 C59.31922404 12.71015468 60.23739273 21.59317802 60.29443359 31.31884766 C60.30669983 32.49093781 60.30669983 32.49093781 60.31921387 33.68670654 C60.34391216 36.25857814 60.36054571 38.83039503 60.375 41.40234375 C60.38032368 42.28653362 60.38564735 43.1707235 60.39113235 44.081707 C60.41779922 48.76393514 60.43719275 53.44613724 60.45166016 58.12841797 C60.4649781 61.98282715 60.4928005 65.83670429 60.53369141 69.69091797 C60.58327758 74.36634202 60.60781251 79.04128521 60.61488724 83.71696091 C60.621556 85.48780961 60.63666232 87.25864942 60.66077805 89.02934647 C60.79997912 99.87033413 60.85022501 110.58149275 53.37509155 119.3187561 C46.23566921 126.2713509 37.52388616 126.76778043 28.078125 126.76953125 C26.93677094 126.77714478 25.79541687 126.7847583 24.61947632 126.79260254 C22.21411314 126.80336911 19.80870335 126.80627073 17.40332031 126.80175781 C13.74464105 126.80078605 10.08806429 126.84244039 6.4296875 126.88671875 C4.08333767 126.89192694 1.73698061 126.89461392 -0.609375 126.89453125 C-1.69197601 126.91092651 -2.77457703 126.92732178 -3.88998413 126.94421387 C-12.10557352 126.87031555 -19.15607107 125.02997033 -25.1171875 119.08984375 C-25.54 118.37570312 -25.9628125 117.6615625 -26.3984375 116.92578125 C-26.841875 116.21679688 -27.2853125 115.5078125 -27.7421875 114.77734375 C-30.52385331 108.8193163 -31.20171917 103.25654592 -31.22070312 96.80200195 C-31.23063293 95.98144821 -31.24056274 95.16089447 -31.25079346 94.31547546 C-31.27983886 91.61913612 -31.29360792 88.92303215 -31.3046875 86.2265625 C-31.31034225 85.29915945 -31.31599701 84.3717564 -31.32182312 83.41625023 C-31.35173028 78.50706228 -31.3702367 73.59799068 -31.37890625 68.6887207 C-31.38985649 63.64623738 -31.43789066 58.60483937 -31.49485016 53.5626955 C-31.53230617 49.65989685 -31.54252482 45.75735422 -31.545578 41.8543911 C-31.55158788 39.99701196 -31.56749746 38.13963497 -31.59394836 36.28243446 C-31.73690321 25.47253192 -31.55517814 16.42652607 -24.8984375 7.30078125 C-17.84198744 0.1400729 -9.43232604 -0.00779218 0 0 Z " fill="#1A1B1A" transform="translate(655.8984375,446.69921875)"/>
<path d="M0 0 C2.46069128 0.01385415 4.91755845 -0.02027477 7.37792969 -0.05834961 C18.55228841 -0.113177 28.35679759 1.1281363 37.09667969 8.82641602 C43.29165153 15.73154317 45.21077326 23.81609163 45.2578125 32.84838867 C45.26525986 33.93707748 45.26525986 33.93707748 45.27285767 35.04776001 C45.28744235 37.44534258 45.2942768 39.84285889 45.29980469 42.24047852 C45.30556127 43.91474406 45.31131894 45.58900961 45.31707764 47.26327515 C45.32757858 50.77537339 45.33342649 54.28744882 45.33691406 57.79956055 C45.34238239 62.27812189 45.36637847 66.75637671 45.39488602 71.2348423 C45.41360765 74.69575855 45.41872314 78.15660256 45.42024994 81.61756516 C45.42325796 83.26722251 45.43122321 84.91687917 45.44443512 86.56648636 C45.52954886 98.01523404 45.42160117 108.62423897 37.81933594 117.88891602 C28.84027807 126.6847278 14.67865415 125.94948034 2.99291992 125.94702148 C0.66673883 125.95140178 -1.65755028 125.98784801 -3.98339844 126.02563477 C-14.98263904 126.11045087 -24.31253321 125.16803589 -32.90332031 117.57641602 C-39.26614107 108.05230423 -38.63777385 97.11385704 -38.56738281 86.16235352 C-38.57075887 84.29773646 -38.57561802 82.43312156 -38.58187866 80.56851196 C-38.58920918 76.68030633 -38.5786664 72.7926789 -38.55517578 68.90454102 C-38.52665023 63.94384583 -38.54314006 58.9845013 -38.5730381 54.02385521 C-38.59118104 50.18026713 -38.58532181 46.3369948 -38.57239914 42.49339676 C-38.56908649 40.66512513 -38.57307601 38.83682394 -38.58479691 37.00858688 C-38.68455129 17.08632986 -38.68455129 17.08632986 -31.25907898 8.72492981 C-22.55824343 0.13541512 -11.46940628 -0.08999633 0 0 Z " fill="#1A1B1A" transform="translate(484.9033203125,447.423583984375)"/>
<path d="M0 0 C0.99 0.33 1.98 0.66 3 1 C2.51202438 1.39709671 2.02404877 1.79419342 1.52128601 2.20332336 C-0.44381411 4.52415551 -0.36429341 5.73473667 -0.34057617 8.74682617 C-0.34034958 9.70759567 -0.34012299 10.66836517 -0.33988953 11.6582489 C-0.32440567 12.69270645 -0.30892181 13.727164 -0.29296875 14.79296875 C-0.28872391 15.85413406 -0.28447906 16.91529938 -0.28010559 18.00862122 C-0.26329706 21.40183765 -0.22564019 24.79446272 -0.1875 28.1875 C-0.172456 30.48631956 -0.15876711 32.78514841 -0.14648438 35.08398438 C-0.11338645 40.72285842 -0.0631653 46.36138697 0 52 C0.66 52.33 1.32 52.66 2 53 C1.01 53.495 1.01 53.495 0 54 C0 122.64 0 191.28 0 262 C-2.41719189 259.58280811 -2.25031082 259.03272334 -2.25168228 255.73020935 C-2.25689778 254.82874459 -2.26211327 253.92727983 -2.26748681 252.99849796 C-2.26302537 252.00182323 -2.25856392 251.00514849 -2.25396729 249.97827148 C-2.25708727 248.92441726 -2.26020725 247.87056303 -2.26342177 246.78477383 C-2.27144111 243.23015801 -2.26506282 239.67571104 -2.25878906 236.12109375 C-2.26149718 233.58220316 -2.26505709 231.04331335 -2.26940918 228.50442505 C-2.27760546 222.31033799 -2.27637361 216.11631414 -2.2705839 209.92222619 C-2.2660741 204.88986834 -2.26545154 199.85752408 -2.26763153 194.82516479 C-2.267938 194.10997002 -2.26824446 193.39477525 -2.26856022 192.6579079 C-2.26919964 191.20517643 -2.26984807 189.75244496 -2.2705054 188.29971349 C-2.27621369 174.66526265 -2.26964299 161.03083866 -2.25890467 147.39639223 C-2.2499687 135.68775063 -2.2515206 123.97914869 -2.26074219 112.27050781 C-2.27143603 98.68611148 -2.27566432 85.10173871 -2.26951766 71.51733875 C-2.26888054 70.06983757 -2.2682518 68.62233639 -2.26763153 67.17483521 C-2.26732298 66.46256616 -2.26701443 65.75029711 -2.26669653 65.01644415 C-2.26496692 59.98791626 -2.26789039 54.95940327 -2.27259064 49.93087769 C-2.27877317 43.16762205 -2.27439549 36.40445315 -2.26280212 29.64120102 C-2.26014728 27.1522522 -2.26093456 24.6632971 -2.26532745 22.17435074 C-2.27075192 18.79005654 -2.26398659 15.40600692 -2.25396729 12.02172852 C-2.26065945 10.52671641 -2.26065945 10.52671641 -2.26748681 9.00150204 C-2.26227132 8.10003728 -2.25705582 7.19857252 -2.25168228 6.26979065 C-2.25135758 5.48789147 -2.25103287 4.7059923 -2.25069833 3.90039921 C-2 2 -2 2 0 0 Z " fill="#E35829" transform="translate(417,418)"/>
<path d="M0 0 C3.38666654 1.46830164 5.61664718 3.35925509 8.22265625 5.95703125 C9.00833984 6.74013672 9.79402344 7.52324219 10.60351562 8.33007812 C11.82071289 9.55887695 11.82071289 9.55887695 13.0625 10.8125 C13.87783203 11.62009766 14.69316406 12.42769531 15.53320312 13.25976562 C16.31759766 14.04673828 17.10199219 14.83371094 17.91015625 15.64453125 C18.97955444 16.71731323 18.97955444 16.71731323 20.07055664 17.81176758 C22.06357539 20.07210253 23.53314865 22.37394181 25 25 C23.68 25.33 22.36 25.66 21 26 C17.11089435 21.48361924 17.11089435 21.48361924 16.54833984 19.03027344 C15.88788487 16.5848845 14.93940783 15.55251639 13.1640625 13.765625 C12.59429688 13.19199219 12.02453125 12.61835938 11.4375 12.02734375 C10.5403125 11.14755859 10.5403125 11.14755859 9.625 10.25 C9.03460937 9.64800781 8.44421875 9.04601562 7.8359375 8.42578125 C7.26359375 7.85730469 6.69125 7.28882813 6.1015625 6.703125 C5.57900879 6.18395508 5.05645508 5.66478516 4.51806641 5.12988281 C2.91430276 3.70146758 2.91430276 3.70146758 0 4 C0 2.68 0 1.36 0 0 Z " fill="#DB5629" transform="translate(734,298)"/>
<path d="M0 0 C8.25 0 16.5 0 25 0 C23.68 1.65 22.36 3.3 21 5 C20.01 4.67 19.02 4.34 18 4 C15.85744207 4.38932856 15.85744207 4.38932856 14 5 C14 4.34 14 3.68 14 3 C9.38 2.34 4.76 1.68 0 1 C0 0.67 0 0.34 0 0 Z " fill="#E35728" transform="translate(481,417)"/>
<path d="M0 0 C0.99 0.33 1.98 0.66 3 1 C2.67 1.99 2.34 2.98 2 4 C4.70183055 5.35091528 7.11808206 5.33858058 10.125 5.5625 C11.76855469 5.68818359 11.76855469 5.68818359 13.4453125 5.81640625 C14.28835938 5.87699219 15.13140625 5.93757812 16 6 C16 6.33 16 6.66 16 7 C8.41 7 0.82 7 -7 7 C-6.67 6.01 -6.34 5.02 -6 4 C-5.67 4.33 -5.34 4.66 -5 5 C-4.34 4.01 -3.68 3.02 -3 2 C-2.01 1.34 -1.02 0.68 0 0 Z " fill="#E3592A" transform="translate(723,597)"/>
<path d="M0 0 C0.33 5.28 0.66 10.56 1 16 C0.34 15.67 -0.32 15.34 -1 15 C-1.6328125 12.71484375 -1.6328125 12.71484375 -2.125 9.9375 C-2.29257812 9.01839844 -2.46015625 8.09929688 -2.6328125 7.15234375 C-2.75398437 6.44207031 -2.87515625 5.73179687 -3 5 C-5.97 7.475 -5.97 7.475 -9 10 C-7.85488963 7.02271304 -3.65933899 0 0 0 Z " fill="#0B1319" transform="translate(715,589)"/>
<path d="M0 0 C1.32 0 2.64 0 4 0 C4 0.66 4 1.32 4 2 C4.66 2 5.32 2 6 2 C6 2.66 6 3.32 6 4 C5.01 4.66 4.02 5.32 3 6 C2.27034634 8.56282742 2.27034634 8.56282742 2 11 C1.34 11 0.68 11 0 11 C0 7.37 0 3.74 0 0 Z " fill="#DD5629" transform="translate(715,589)"/>
<path d="M0 0 C13.41504595 11.22483437 13.41504595 11.22483437 16 17 C12.19331705 15.46518706 10.1037511 13.13477919 7.4375 10.0625 C4.43270712 6.58745192 4.43270712 6.58745192 1.22265625 3.30859375 C0 2 0 2 0 0 Z " fill="#E3592A" transform="translate(779,344)"/>
<path d="M0 0 C0.33 0.66 0.66 1.32 1 2 C-2.84115523 8.31046931 -2.84115523 8.31046931 -7 10 C-8.35113205 10.97581759 -9.68946944 11.97029741 -11 13 C-9.46356148 9.31930113 -7.21849055 7.01224796 -4.375 4.25 C-3.55773437 3.45078125 -2.74046875 2.6515625 -1.8984375 1.828125 C-0.95871094 0.92320312 -0.95871094 0.92320312 0 0 Z " fill="#0C1318" transform="translate(690,381)"/>
<path d="M0 0 C2.72426311 2.35277269 3.8141763 4.62496331 5 8 C4.01 8.99 3.02 9.98 2 11 C2.33 9.35 2.66 7.7 3 6 C1.68 5.67 0.36 5.34 -1 5 C-0.67 3.35 -0.34 1.7 0 0 Z " fill="#DC5729" transform="translate(449,560)"/>
<path d="M0 0 C2.31623708 2.26650193 4.48633273 4.62805959 6.625 7.0625 C7.23601562 7.75472656 7.84703125 8.44695313 8.4765625 9.16015625 C10 11 10 11 11 13 C6.78209731 11.67786355 5.02897493 10.22699886 2.6875 6.5 C2.17574219 5.7059375 1.66398437 4.911875 1.13671875 4.09375 C0 2 0 2 0 0 Z " fill="#DE5628" transform="translate(265,557)"/>
<path d="M0 0 C3.81684226 1.55500981 6.19195732 4.03595495 9 7 C8.67 7.66 8.34 8.32 8 9 C6.50260417 7.69791667 5.00520833 6.39583333 3.5078125 5.09375 C2.04063579 3.80427542 2.04063579 3.80427542 0 4 C0 2.68 0 1.36 0 0 Z " fill="#EB5B2A" transform="translate(734,298)"/>
<path d="M0 0 C0.598125 0.165 1.19625 0.33 1.8125 0.5 C4.11344336 1.1114124 4.11344336 1.1114124 7 1 C4.6875 3.0625 4.6875 3.0625 2 5 C1.01 4.67 0.02 4.34 -1 4 C-0.67 2.68 -0.34 1.36 0 0 Z " fill="#E0582A" transform="translate(532,591)"/>
<path d="M0 0 C0 3 0 3 -1.3125 4.38671875 C-2.875 5.59114583 -4.4375 6.79557292 -6 8 C-6 6.68 -6 5.36 -6 4 C-3.5625 2.3125 -3.5625 2.3125 -1 1 C-0.67 0.67 -0.34 0.34 0 0 Z " fill="#E65A29" transform="translate(696,372)"/>
</svg>
